<?xml version="1.0" encoding="utf-8"?>
<!-- Generator: Adobe Illustrator 21.0.2, SVG Export Plug-In . SVG Version: 6.00 Build 0)  -->
<svg version="1.1" id="Layer_1" xmlns="http://www.w3.org/2000/svg" xmlns:xlink="http://www.w3.org/1999/xlink" x="0px" y="0px"
	 viewBox="0 0 512 512" style="enable-background:new 0 0 512 512;" xml:space="preserve">
<style type="text/css">
	.st0{fill:#E34F26;}
	.st1{fill:#EF652A;}
	.st2{fill:#EBEBEB;}
	.st3{fill:#FFFFFF;}
</style>
<title>HTML5 Logo Badge</title>
<path class="st0" d="M120.9,405.3l-30-336.7h330.2l-30,336.7l-135.4,38.1"/>
<path class="st1" d="M256.4,414.1l109.1-30l25.6-288.4H256.4"/>
<path class="st2" d="M256.4,220.9h-54.9l-3.7-42.5h58.6v-41h-0.7H152.4l0.7,11l10.2,114.2h93V220.9z M256.4,328.5h-0.7L209.5,316
	l-2.9-32.9h-22h-19l5.1,65.2l84.9,23.4h0.7V328.5z"/>
<path class="st3" d="M255.6,220.9v41.7h51.2l-5.1,53.4l-46.1,12.4v43.2l84.9-23.4l0.7-7.3l9.5-109.1l1.5-11h-11.7H255.6z
	 M255.6,137.4V163v15.4l0,0h100.3l0,0l0,0l0.7-8.8l2.2-21.2l0.7-11H255.6z"/>
</svg>
