<?xml version="1.0" encoding="utf-8"?>
<!-- Generator: Adobe Illustrator 21.0.2, SVG Export Plug-In . SVG Version: 6.00 Build 0)  -->
<svg version="1.1" id="Layer_2_1_" xmlns="http://www.w3.org/2000/svg" xmlns:xlink="http://www.w3.org/1999/xlink" x="0px" y="0px"
	 viewBox="0 0 595.3 595.3" style="enable-background:new 0 0 595.3 595.3;" xml:space="preserve">
<style type="text/css">
	.st0{fill:#61DAFB;}
</style>
<g>
	<path class="st0" d="M534.3,296.5c0-31.4-39.3-61.1-99.5-79.5c13.9-61.4,7.7-110.2-19.5-125.8c-6.3-3.7-13.6-5.4-21.6-5.4v21.5
		c4.4,0,8,0.9,11,2.5c13.1,7.5,18.8,36.2,14.4,73c-1.1,9.1-2.8,18.6-4.9,28.4c-18.9-4.6-39.5-8.2-61.3-10.5
		c-13-17.8-26.5-34.1-40.1-48.2c31.4-29.2,61-45.2,81-45.2V85.7l0,0c-26.5,0-61.3,18.9-96.4,51.7c-35.1-32.6-69.8-51.3-96.4-51.3
		v21.5c20,0,49.6,15.9,81,45c-13.5,14.2-27,30.3-39.8,48.1c-21.8,2.3-42.4,5.9-61.4,10.6c-2.2-9.6-3.9-19-5-28
		c-4.5-36.8,1.1-65.5,14.1-73.1c2.9-1.7,6.7-2.5,11.1-2.5V86.2l0,0c-8.1,0-15.4,1.7-21.8,5.4c-27.1,15.6-33.2,64.3-19.2,125.5
		c-60,18.5-99.1,48.1-99.1,79.4c0,31.4,39.3,61.1,99.5,79.5c-13.9,61.4-7.7,110.2,19.5,125.8c6.3,3.7,13.6,5.4,21.7,5.4
		c26.5,0,61.3-18.9,96.4-51.7c35.1,32.6,69.8,51.3,96.4,51.3c8.1,0,15.4-1.7,21.8-5.4c27.1-15.6,33.2-64.3,19.2-125.5
		C495.3,357.5,534.3,327.8,534.3,296.5z M408.7,232.2c-3.6,12.4-8,25.3-13,38.1c-4-7.7-8.1-15.4-12.6-23.2
		c-4.4-7.7-9.2-15.2-13.9-22.6C382.9,226.6,396.1,229.1,408.7,232.2z M364.5,334.9c-7.5,13-15.2,25.4-23.2,36.8
		c-14.4,1.3-28.9,1.9-43.6,1.9c-14.6,0-29.1-0.7-43.4-1.8c-8-11.5-15.8-23.7-23.3-36.7c-7.3-12.6-14-25.5-20.1-38.4
		c6-12.9,12.7-25.9,20-38.5c7.5-13,15.2-25.4,23.2-36.8c14.4-1.3,28.9-1.9,43.6-1.9c14.6,0,29.1,0.7,43.4,1.8
		c8,11.5,15.8,23.7,23.3,36.7c7.3,12.6,14,25.5,20.1,38.4C378.4,309.3,371.8,322.3,364.5,334.9z M395.7,322.4
		c5.2,12.9,9.6,25.9,13.3,38.4c-12.6,3.1-25.9,5.7-39.7,7.7c4.7-7.4,9.5-15,13.9-22.9C387.6,337.9,391.8,330.1,395.7,322.4z
		 M297.9,425.3c-9-9.3-17.9-19.6-26.8-30.9c8.7,0.4,17.6,0.7,26.5,0.7c9.1,0,18-0.2,26.8-0.7C315.7,405.7,306.8,416,297.9,425.3z
		 M226.1,368.5c-13.7-2-26.9-4.5-39.5-7.6c3.6-12.4,8-25.3,13-38.1c4,7.7,8.1,15.4,12.6,23.2S221.4,361.1,226.1,368.5z M297.4,167.7
		c9,9.3,17.9,19.6,26.8,30.9c-8.7-0.4-17.6-0.7-26.5-0.7c-9.1,0-18,0.2-26.8,0.7C279.6,187.3,288.5,177,297.4,167.7z M226,224.5
		c-4.7,7.4-9.5,15-13.9,22.9c-4.4,7.7-8.6,15.4-12.5,23.2c-5.2-12.9-9.6-25.9-13.3-38.4C198.9,229.2,212.2,226.6,226,224.5z
		 M138.7,345.3c-34.1-14.6-56.2-33.7-56.2-48.8s22.1-34.3,56.2-48.8c8.3-3.6,17.4-6.8,26.7-9.7c5.5,18.9,12.7,38.6,21.7,58.7
		c-8.9,20.1-16,39.6-21.4,58.5C156.2,352.2,147.1,348.9,138.7,345.3z M190.6,483.2c-13.1-7.5-18.8-36.2-14.4-73
		c1.1-9.1,2.8-18.6,4.9-28.4c18.9,4.6,39.5,8.2,61.3,10.5c13,17.8,26.5,34.1,40.1,48.2c-31.4,29.2-61,45.2-81,45.2
		C197.2,485.7,193.5,484.8,190.6,483.2z M419.4,409.6c4.5,36.8-1.1,65.5-14.1,73.1c-2.9,1.7-6.7,2.5-11.1,2.5c-20,0-49.6-15.9-81-45
		c13.5-14.2,27-30.3,39.8-48.1c21.8-2.3,42.4-5.9,61.4-10.6C416.6,391.3,418.4,400.7,419.4,409.6z M456.6,345.3
		c-8.3,3.6-17.4,6.8-26.7,9.7c-5.5-18.9-12.7-38.6-21.7-58.7c8.9-20.1,16-39.6,21.4-58.5c9.5,3,18.6,6.3,27.1,9.8
		c34.1,14.6,56.2,33.7,56.2,48.8C512.8,311.6,490.7,330.8,456.6,345.3z"/>
	<path class="st0" d="M201,86.1L201,86.1L201,86.1z"/>
	<circle class="st0" cx="297.6" cy="296.5" r="44.1"/>
	<path class="st0" d="M393.7,85.8L393.7,85.8L393.7,85.8z"/>
</g>
</svg>
