<?xml version="1.0" encoding="utf-8"?>
<!-- Generator: Adobe Illustrator 21.0.2, SVG Export Plug-In . SVG Version: 6.00 Build 0)  -->
<svg version="1.1" id="Layer_1" xmlns="http://www.w3.org/2000/svg" xmlns:xlink="http://www.w3.org/1999/xlink" x="0px" y="0px"
	 viewBox="0 0 81 81" style="enable-background:new 0 0 81 81;" xml:space="preserve">
<style type="text/css">
	.st0{fill:#FFFFFF;}
</style>
<g>
	<g>
		<path class="st0" d="M54.5,45.8c-1.1,1.5-3,2.8-5.5,4.1c1.5,1.3,2.5,2.6,3.2,3.8c0.7,1.2,1,2.6,1,4.1c0,2-0.6,3.7-1.9,5.1
			c-1.2,1.5-3,2.6-5.1,3.4c-2.2,0.8-4.7,1.2-7.5,1.2c-3.1,0-5.7-0.5-7.6-1.4c-1.1-0.6-1.9-1.3-2.5-2.1c-0.6-0.8-0.8-1.9-0.8-3.2
			c0-0.8,0.2-1.5,0.6-2.2s1-1.2,1.7-1.7c0.7-0.4,1.6-0.6,2.5-0.6c1.5,0,2.7,0.4,3.6,1.2c0.9,0.8,1.4,1.9,1.4,3.2
			c0,1.1-0.3,2.1-0.9,3c-0.6,0.9-1.3,1.5-2.2,1.9c0.2,0.2,0.6,0.4,1.4,0.5s1.5,0.3,2.2,0.3c1.9,0,3.3-0.5,4.3-1.4
			c0.9-0.9,1.4-2,1.4-3.4c0-1.2-0.2-2.2-0.6-3.1c-0.4-0.8-1-1.5-1.8-2.2c-0.8-0.6-2.1-1.5-3.8-2.6l-2.4-1.6c-2.7-1.8-4.7-3.2-6-4.3
			c-1.4-1.1-2.4-2.2-3.2-3.5c-0.8-1.2-1.2-2.7-1.2-4.3c0-1.8,0.6-3.5,1.7-4.9c1.1-1.5,3-2.8,5.5-4.1c-1.5-1.3-2.6-2.6-3.2-3.8
			c-0.7-1.2-1-2.6-1-4c0-2,0.6-3.7,1.9-5.1c1.2-1.5,3-2.6,5.1-3.4c2.2-0.8,4.7-1.2,7.5-1.2c3.1,0,5.7,0.5,7.6,1.5
			c1.1,0.6,1.9,1.3,2.5,2.1c0.6,0.8,0.8,1.8,0.8,3.1c0,0.8-0.2,1.5-0.6,2.2c-0.4,0.7-1,1.2-1.7,1.7c-0.8,0.4-1.6,0.6-2.5,0.6
			c-1.5,0-2.7-0.4-3.6-1.2s-1.4-1.9-1.4-3.2c0-1.1,0.3-2,0.9-2.9c0.6-0.9,1.3-1.5,2.2-1.9c-0.2-0.2-0.7-0.3-1.4-0.5
			c-0.7-0.2-1.5-0.3-2.2-0.3c-1.9,0-3.3,0.5-4.2,1.4c-0.9,0.9-1.4,2-1.4,3.4c0,1.2,0.2,2.2,0.6,3c0.4,0.8,1,1.5,1.8,2.2
			c0.8,0.6,2,1.5,3.8,2.6l2.5,1.6c2.6,1.8,4.6,3.2,6,4.3c1.4,1.1,2.4,2.2,3.2,3.5s1.2,2.7,1.2,4.3C56.2,42.7,55.7,44.4,54.5,45.8z
			 M47.5,48.7c0.5-0.8,0.7-1.8,0.7-3c0-1-0.3-2-0.8-2.8c-0.5-0.8-1.5-1.8-2.8-2.8c-1.3-1-3.3-2.4-6.1-4.2c-2.3-1.5-4-2.7-5.1-3.6
			c-0.5,0.8-0.7,1.8-0.7,3c0,1,0.3,2,0.8,2.8c0.5,0.8,1.5,1.8,2.8,2.8c1.3,1,3.3,2.4,6.1,4.2C44.4,46.4,46.1,47.6,47.5,48.7z"/>
		<path class="st0" d="M38.7,69.9c-3.5,0-6.4-0.6-8.7-1.7c-1.5-0.8-2.6-1.8-3.4-2.9c-0.8-1.2-1.3-2.8-1.3-4.6c0-1.2,0.3-2.4,1-3.5
			c0.6-1.1,1.5-1.9,2.7-2.6c1.2-0.7,2.7-1,4.1-0.9c-2.4-1.6-4.2-2.9-5.5-3.9c-1.6-1.3-2.8-2.6-3.8-4.1c-1-1.6-1.5-3.5-1.5-5.6
			c0-2.4,0.7-4.5,2.2-6.4c0.9-1.1,2-2.2,3.5-3.1c-0.6-0.7-1-1.3-1.4-2c-0.9-1.6-1.3-3.4-1.3-5.2c0-2.6,0.8-4.8,2.5-6.7
			c1.5-1.8,3.6-3.2,6.2-4.1c2.5-0.9,5.3-1.3,8.4-1.3c3.5,0,6.5,0.6,8.7,1.7c1.5,0.8,2.6,1.7,3.4,2.9c0.8,1.2,1.3,2.8,1.3,4.6
			c0,1.2-0.3,2.4-1,3.5c-0.6,1.1-1.5,1.9-2.7,2.6c-1.2,0.7-2.7,1-4.1,0.9c2.4,1.6,4.2,2.9,5.5,3.9c1.6,1.3,2.8,2.6,3.8,4.1
			c1,1.6,1.5,3.5,1.5,5.6c0,2.4-0.7,4.5-2.2,6.4l0,0c-0.9,1.1-2,2.2-3.5,3.1c0.5,0.7,1,1.3,1.4,2c0.9,1.6,1.3,3.4,1.3,5.3
			c0,2.5-0.8,4.8-2.5,6.7c-1.5,1.8-3.6,3.2-6.2,4.1C44.6,69.5,41.8,69.9,38.7,69.9z"/>
	</g>
</g>
<g>
	<path d="M54.5,45.8c-1.1,1.5-3,2.8-5.5,4.1c1.5,1.3,2.5,2.6,3.2,3.8c0.7,1.2,1,2.6,1,4.1c0,2-0.6,3.7-1.9,5.1
		c-1.2,1.5-3,2.6-5.1,3.4c-2.2,0.8-4.7,1.2-7.5,1.2c-3.1,0-5.7-0.5-7.6-1.4c-1.1-0.6-1.9-1.3-2.5-2.1c-0.6-0.8-0.8-1.9-0.8-3.2
		c0-0.8,0.2-1.5,0.6-2.2s1-1.2,1.7-1.7c0.7-0.4,1.6-0.6,2.5-0.6c1.5,0,2.7,0.4,3.6,1.2c0.9,0.8,1.4,1.9,1.4,3.2c0,1.1-0.3,2.1-0.9,3
		c-0.6,0.9-1.3,1.5-2.2,1.9c0.2,0.2,0.6,0.4,1.4,0.5s1.5,0.3,2.2,0.3c1.9,0,3.3-0.5,4.3-1.4c0.9-0.9,1.4-2,1.4-3.4
		c0-1.2-0.2-2.2-0.6-3.1c-0.4-0.8-1-1.5-1.8-2.2c-0.8-0.6-2.1-1.5-3.8-2.6l-2.4-1.6c-2.7-1.8-4.7-3.2-6-4.3
		c-1.4-1.1-2.4-2.2-3.2-3.5c-0.8-1.2-1.2-2.7-1.2-4.3c0-1.8,0.6-3.5,1.7-4.9c1.1-1.5,3-2.8,5.5-4.1c-1.5-1.3-2.6-2.6-3.2-3.8
		c-0.7-1.2-1-2.6-1-4c0-2,0.6-3.7,1.9-5.1c1.2-1.5,3-2.6,5.1-3.4c2.2-0.8,4.7-1.2,7.5-1.2c3.1,0,5.7,0.5,7.6,1.5
		c1.1,0.6,1.9,1.3,2.5,2.1c0.6,0.8,0.8,1.8,0.8,3.1c0,0.8-0.2,1.5-0.6,2.2c-0.4,0.7-1,1.2-1.7,1.7c-0.8,0.4-1.6,0.6-2.5,0.6
		c-1.5,0-2.7-0.4-3.6-1.2s-1.4-1.9-1.4-3.2c0-1.1,0.3-2,0.9-2.9c0.6-0.9,1.3-1.5,2.2-1.9c-0.2-0.2-0.7-0.3-1.4-0.5
		c-0.7-0.2-1.5-0.3-2.2-0.3c-1.9,0-3.3,0.5-4.2,1.4c-0.9,0.9-1.4,2-1.4,3.4c0,1.2,0.2,2.2,0.6,3c0.4,0.8,1,1.5,1.8,2.2
		c0.8,0.6,2,1.5,3.8,2.6l2.5,1.6c2.6,1.8,4.6,3.2,6,4.3c1.4,1.1,2.4,2.2,3.2,3.5s1.2,2.7,1.2,4.3C56.2,42.7,55.7,44.4,54.5,45.8z
		 M47.5,48.7c0.5-0.8,0.7-1.8,0.7-3c0-1-0.3-2-0.8-2.8c-0.5-0.8-1.5-1.8-2.8-2.8c-1.3-1-3.3-2.4-6.1-4.2c-2.3-1.5-4-2.7-5.1-3.6
		c-0.5,0.8-0.7,1.8-0.7,3c0,1,0.3,2,0.8,2.8c0.5,0.8,1.5,1.8,2.8,2.8c1.3,1,3.3,2.4,6.1,4.2C44.4,46.4,46.1,47.6,47.5,48.7z"/>
</g>
</svg>
