<?xml version="1.0" encoding="utf-8"?>
<!-- Generator: Adobe Illustrator 21.0.2, SVG Export Plug-In . SVG Version: 6.00 Build 0)  -->
<svg version="1.1" id="Layer_1" xmlns="http://www.w3.org/2000/svg" xmlns:xlink="http://www.w3.org/1999/xlink" x="0px" y="0px"
	 viewBox="0 0 2500 2500" style="enable-background:new 0 0 2500 2500;" xml:space="preserve">
<style type="text/css">
	.st0{fill:#FFFFFF;}
	.st1{fill:#8ED6FB;}
	.st2{fill:#1C78C0;}
</style>
<path class="st0" d="M1250,112l1005.8,569v1138L1250,2388L244.2,1819V681L1250,112z"/>
<path class="st1" d="M2076.2,1779.8l-793,448.6V1879l494.1-271.8L2076.2,1779.8z M2130.5,1730.6V792.5L1840.3,960v603L2130.5,1730.6
	L2130.5,1730.6z M420.6,1779.8l793,448.6V1879l-494.1-271.8L420.6,1779.8L420.6,1779.8z M366.3,1730.6V792.5L656.5,960v603
	L366.3,1730.6L366.3,1730.6z M400.3,731.8l813.3-460.1v337.8l-521,286.6l-4,2.3L400.3,731.8z M2096.5,731.8l-813.3-460.1v337.8
	l521,286.6l4,2.3L2096.5,731.8z"/>
<path class="st2" d="M1213.6,1799.5l-487.5-268v-531.1l487.5,281.5V1799.5 M1283.2,1799.5l487.5-268v-531.1l-487.5,281.5V1799.5
	 M759.1,938.9l489.4-269.1l489.4,269.1l-489.4,282.6L759.1,938.9"/>
</svg>
